<svg width="20" height="20" xmlns="http://www.w3.org/2000/svg">

 <g>
  <title>background</title>
  <rect fill="none" id="canvas_background" height="22" width="22" y="-1" x="-1"/>
 </g>
 <g>
  <title>Layer 1</title>
  <g stroke="null" id="Grupo_32">
   <path stroke="null" fill="#fff" d="m16.46875,17.09125l-5.821875,0l0,-14.3725l5.821875,0l0,14.371774l0,0.000726zm-4.528125,-2.791065l0,1.4728l3.234375,0l0,-1.4728l-3.234375,0zm0,-2.930365l0,1.471349l3.234375,0l0,-1.471349l-3.234375,0zm0,-2.93109l0,1.472075l3.234375,0l0,-1.472075l-3.234375,0zm0,-3.883695l0,2.197592l3.234375,0l0,-2.197592l-3.234375,0z" id="Subtração_15"/>
   <g stroke="null" id="Grupo_28">
    <rect stroke="null" x="5.471875" y="2.71875" fill="#fff" height="6.529657" width="1.940625" id="Retângulo_110"/>
    <rect stroke="null" x="12.747326" y="-2.458936" fill="#fff" transform="matrix(0,0.7255173921585083,-0.6468750238418579,0,7.762500524520874,-4.35310410667946) " height="9" width="3" id="Retângulo_111"/>
   </g>
  </g>
 </g>
</svg>