<svg xmlns="http://www.w3.org/2000/svg" width="35.87" height="36.487" viewBox="0 0 35.87 36.487">
  <path id="school-bag-" d="M28.961,23.593v6.6a1.032,1.032,0,0,1-1.03,1.03H11.607a1.031,1.031,0,0,1-1.03-1.03v-6.6a1.031,1.031,0,0,1,1.03-1.03H27.93A1.031,1.031,0,0,1,28.961,23.593Zm8.743.031V30.33a2.583,2.583,0,0,1-2.58,2.58H33.56a3.894,3.894,0,0,1-3.876,3.577H9.854A3.894,3.894,0,0,1,5.978,32.91H4.414a2.583,2.583,0,0,1-2.58-2.58V23.624a2.583,2.583,0,0,1,2.58-2.58h1.55V9.341A3.894,3.894,0,0,1,9.854,5.452h4.628V4.63A4.635,4.635,0,0,1,19.112,0h1.315a4.635,4.635,0,0,1,4.63,4.63v.822h4.628a3.894,3.894,0,0,1,3.889,3.889v11.7h1.55A2.583,2.583,0,0,1,37.7,23.624ZM16.164,5.452h7.209V4.63a2.951,2.951,0,0,0-2.947-2.947H19.112A2.951,2.951,0,0,0,16.164,4.63v.822ZM30.643,23.593A2.716,2.716,0,0,0,27.93,20.88H11.607a2.716,2.716,0,0,0-2.713,2.713v6.6a2.716,2.716,0,0,0,2.713,2.713H27.93A2.716,2.716,0,0,0,30.643,30.2v-6.6Zm0-12.414a2.988,2.988,0,0,0-2.985-2.985H11.88a2.988,2.988,0,0,0-2.985,2.985V14.07a.841.841,0,0,0,1.683,0V11.179a1.3,1.3,0,0,1,1.3-1.3H27.658a1.3,1.3,0,0,1,1.3,1.3v2.5a.841.841,0,0,0,1.683,0v-2.5Z" transform="translate(-1.834 0)" fill="#fff"/>
</svg>
