<svg xmlns="http://www.w3.org/2000/svg" width="31.615" height="32.786" viewBox="0 0 31.615 32.786">
  <g id="Grupo_36" data-name="Grupo 36" transform="translate(-1855.192 -18.607)">
    <g id="iconfinder_10-Backpack_4470691" transform="translate(1850.192 14.607)">
      <path id="Caminho_59" data-name="Caminho 59" d="M33.688,26.248H33.1v-6.44a12.3,12.3,0,0,0-8.2-11.586.908.908,0,0,0,0-.123,4.1,4.1,0,0,0-8.2,0,.908.908,0,0,0,0,.123,12.3,12.3,0,0,0-8.2,11.586v6.44H7.927A2.927,2.927,0,0,0,5,29.175v3.513a1.756,1.756,0,0,0,1.756,1.756H8.513v.585a1.756,1.756,0,0,0,1.756,1.756H31.346A1.756,1.756,0,0,0,33.1,35.03v-.585h1.756a1.756,1.756,0,0,0,1.756-1.756V29.175a2.927,2.927,0,0,0-2.927-2.927ZM20.808,6.171c1.534,0,1.811.176,1.927,1.7a5.175,5.175,0,0,0-3.808,0c.115-1.511.365-1.685,1.881-1.7ZM10.855,19.808c1-6.144,3.809-8.953,9.953-8.953s8.953,2.809,9.953,8.953V30.931H29.59V28A3.059,3.059,0,0,0,28.9,26a4.545,4.545,0,0,0-2.237-.918H14.953A4.491,4.491,0,0,0,12.741,26,3.149,3.149,0,0,0,12.026,28v2.927H10.855ZM27.248,28v4.684a.585.585,0,0,1-.585.585H14.953a.585.585,0,0,1-.585-.585V28a.585.585,0,0,1,.585-.585H26.662A.585.585,0,0,1,27.248,28ZM7.756,33.273a.585.585,0,0,1-.585-.585V29.175c0-.97.786-.756,1.756-.756l-.415-1v5.855Zm26.688-.585a.585.585,0,0,1-.585.585H33.1V27.419l-.415,1c.97,0,1.756-.214,1.756.756Z" fill="#fff"/>
      <path id="Caminho_60" data-name="Caminho 60" d="M26.342,20.855h4.684a2.906,2.906,0,0,0,2.328-2.342V17.342A2.906,2.906,0,0,0,31.026,15H26.342A2.922,2.922,0,0,0,24,17.342v1.171a2.922,2.922,0,0,0,2.342,2.342Zm-.585-3.513a.585.585,0,0,1,.585-.585h4.684a.585.585,0,0,1,.585.585v1.171a.585.585,0,0,1-.585.585H26.342a.585.585,0,0,1-.585-.585Z" transform="translate(-7.876 -1.389)" fill="#fff"/>
    </g>
  </g>
</svg>
