<svg xmlns="http://www.w3.org/2000/svg" width="83.506" height="92.35" viewBox="0 0 83.506 92.35">
  <defs>
    <style>
      .cls-1, .cls-2, .cls-3, .cls-4, .cls-5, .cls-7 {
        fill: none;
      }

      .cls-2, .cls-3, .cls-4, .cls-5, .cls-7 {
        stroke: #fff;
      }

      .cls-2, .cls-3, .cls-7 {
        stroke-linecap: round;
      }

      .cls-2 {
        stroke-linejoin: round;
        stroke-width: 6px;
      }

      .cls-3 {
        stroke-width: 3px;
      }

      .cls-4 {
        stroke-width: 2px;
      }

      .cls-5, .cls-7 {
        stroke-width: 4px;
      }

      .cls-6, .cls-9 {
        fill: #fff;
      }

      .cls-8, .cls-9 {
        stroke: none;
      }
    </style>
  </defs>
  <g id="Grupo_9" data-name="Grupo 9" transform="translate(-1420.927 -144.047)">
    <g id="Caminho_36" data-name="Caminho 36" class="cls-1" transform="translate(1445 151)">
      <path class="cls-8" d="M20.158,11.255c1.858,0,12.991,5.435,12.991,5.435V2.241a41.257,41.257,0,0,1,5.169-.862C48.171,4.775,52.649,14.189,52.649,25c0,7.9.4,46.686,0,52.451s-11.19,5.15-11.19,5.15l-5.141-.693,1-51.167S36.091,19.721,20.953,14.966c-8.924-2.8-34.6,1.388-34.6-1.856,0-3.162,18.691-4.374,18.691-4.374S8.948,11.255,20.158,11.255Z"/>
      <path class="cls-9" d="M 38.1484375 6.690162658691406 L 38.1484375 16.68946075439453 L 38.1484375 20.6905632019043 C 38.45698928833008 21.10287475585938 38.73741149902344 21.50478363037109 38.9919319152832 21.8924446105957 C 41.71030044555664 26.03282928466797 42.21383666992188 29.52862930297852 42.28716278076172 30.1873664855957 L 42.32329940795898 30.51185989379883 L 42.31691360473633 30.83830642700195 L 41.40402984619141 77.54785919189453 L 41.89155197143555 77.61357879638672 C 41.99736022949219 77.61650848388672 42.15131378173828 77.61944580078125 42.34323883056641 77.61944580078125 C 43.03443908691406 77.61944580078125 44.394775390625 77.58064270019531 45.73943710327148 77.32075500488281 C 46.75986099243164 77.12354278564453 47.37687683105469 76.87110137939453 47.68478393554688 76.70278167724609 C 47.94032287597656 71.67836761474609 47.7952995300293 49.45294952392578 47.70762252807617 36.01918411254883 C 47.67482376098633 30.99539947509766 47.64892959594727 27.02732086181641 47.64892959594727 24.99999618530273 C 47.64892959594727 20.30792236328125 46.67533111572266 16.1177978515625 44.83339309692383 12.88261413574219 C 43.23305892944336 10.07176208496094 40.98917007446289 7.994430541992188 38.1484375 6.690162658691406 M 38.16728591918945 1.363616943359375 C 38.23622131347656 1.363609313964844 38.28739166259766 1.368507385253906 38.31786727905273 1.3790283203125 C 48.17150115966797 4.774627685546875 52.64892959594727 14.18902587890625 52.64892959594727 24.99999618530273 C 52.64892959594727 32.89761352539063 53.052978515625 71.6864013671875 52.64892959594727 77.45067596435547 C 52.31589508056641 82.20171356201172 44.92957305908203 82.61943817138672 42.34324264526367 82.61943817138672 C 41.79165267944336 82.61943817138672 41.45874404907227 82.60045623779297 41.45874404907227 82.60045623779297 L 36.31786727905273 81.90747833251953 L 37.31786727905273 30.74059677124023 C 37.31786727905273 30.74059677124023 36.09109878540039 19.72138214111328 20.95337677001953 14.96630859375 C 18.42817687988281 14.1732177734375 14.56013488769531 13.94001007080078 10.31396675109863 13.94001007080078 C 4.259784698486328 13.94001007080078 -2.566410064697266 14.41373443603516 -7.379592895507813 14.41373443603516 C -11.12091064453125 14.41373443603516 -13.64428329467773 14.12770843505859 -13.64428329467773 13.1104736328125 C -13.64428329467773 9.948646545410156 5.046390533447266 8.736076354980469 5.046390533447266 8.736076354980469 C 5.046390533447266 8.736076354980469 8.948453903198242 11.25464630126953 20.15771484375 11.25464630126953 C 22.01593017578125 11.25464630126953 33.1484375 16.68946075439453 33.1484375 16.68946075439453 L 33.1484375 2.2408447265625 C 33.1484375 2.2408447265625 37.24460601806641 1.3636474609375 38.16728591918945 1.363616943359375 Z"/>
    </g>
    <path id="Caminho_31" data-name="Caminho 31" class="cls-2" d="M2.32,0H36.662V23.849L25.5,16.915l-1.018-5.949L-3,9.906V5.2Z" transform="translate(1443.974 147.047)"/>
    <g id="Caminho_35" data-name="Caminho 35" class="cls-1" transform="translate(1434 156)">
      <path class="cls-8" d="M17.331,3.9s13.312.4,16.039,1.193C43.855,8.144,52.649,13.747,52.649,25V77.451S8.323,84.079,0,77.451,0,38.807,0,25c0-2.775-14.006-9.7-13.024-12.485C-9.633,2.887,17.331,3.9,17.331,3.9Z"/>
      <path class="cls-9" d="M 15.15584373474121 8.868408203125 C 12.08493614196777 8.868408203125 6.118072509765625 9.030082702636719 0.6590728759765625 10.11286926269531 C -3.068138122558594 10.85215759277344 -5.387516021728516 11.7999267578125 -6.737922668457031 12.64340972900391 C -5.750858306884766 13.41825866699219 -4.551815032958984 14.27760314941406 -3.390419006347656 15.10996246337891 C 1.480613708496094 18.60097503662109 4.999996185302734 21.12329864501953 4.999996185302734 25.00000381469727 C 4.999996185302734 29.58217239379883 4.182659149169922 35.7716064453125 3.31732177734375 42.32443618774414 C 2.361259460449219 49.56441879272461 1.372627258300781 57.05089569091797 1.304519653320313 63.31472778320313 C 1.212505340576172 71.77797698974609 2.919887542724609 73.38418579101563 3.114875793457031 73.53946685791016 C 3.210090637207031 73.61529541015625 5.582149505615234 75.39665222167969 17.34882736206055 75.39665222167969 C 28.11293411254883 75.39665222167969 41.07981872558594 73.92961883544922 47.64891815185547 73.0855712890625 L 47.64891815185547 25.00000381469727 C 47.64891815185547 22.99282073974609 47.2946891784668 21.24451446533203 46.56598281860352 19.65520477294922 C 45.89456558227539 18.19089508056641 44.91738128662109 16.88763427734375 43.57856750488281 15.67097473144531 C 41.00289916992188 13.33030700683594 37.103759765625 11.38785552978516 31.98510360717773 9.896263122558594 C 31.8087043762207 9.852020263671875 30.32951545715332 9.525871276855469 23.91696548461914 9.182098388671875 C 20.4111499786377 8.994155883789063 17.21396636962891 8.897651672363281 17.18218231201172 8.896697998046875 L 17.16551971435547 8.896217346191406 L 17.14630508422852 8.895500183105469 C 17.13887405395508 8.895233154296875 16.38970375061035 8.868408203125 15.15584373474121 8.868408203125 M 15.15584754943848 3.868400573730469 C 16.51821136474609 3.868400573730469 17.3313045501709 3.89892578125 17.3313045501709 3.89892578125 C 17.3313045501709 3.89892578125 30.6436882019043 4.296127319335938 33.37061309814453 5.092033386230469 C 43.8546142578125 8.143898010253906 52.64891815185547 13.74720764160156 52.64891815185547 25.00000381469727 C 52.64891815185547 32.89762115478516 52.64891815185547 77.45068359375 52.64891815185547 77.45068359375 C 52.64891815185547 77.45068359375 32.94805908203125 80.39664459228516 17.34882926940918 80.39664459228516 C 9.547786712646484 80.39664459228516 2.774669647216797 79.66042327880859 -3.814697265625e-06 77.45068359375 C -8.323001861572266 70.822265625 -3.814697265625e-06 38.80711364746094 -3.814697265625e-06 25.00000381469727 C -3.814697265625e-06 22.22477722167969 -14.00640487670898 15.29666900634766 -13.02417373657227 12.51514434814453 C -10.22242736816406 4.559524536132813 8.67527961730957 3.868400573730469 15.15584754943848 3.868400573730469 Z"/>
    </g>
    <line id="Linha_9" data-name="Linha 9" class="cls-3" y2="5" transform="translate(1489.5 180.5)"/>
    <line id="Linha_11" data-name="Linha 11" class="cls-4" x2="5" y2="4" transform="translate(1484.5 177.5)"/>
    <line id="Linha_12" data-name="Linha 12" class="cls-4" x1="5" y2="5" transform="translate(1489.5 176.5)"/>
    <path id="Caminho_37" data-name="Caminho 37" class="cls-5" d="M0,3.121S3.909,8.7,6.909,7.92,12,0,12,0" transform="translate(1483.5 202.5)"/>
    <rect id="Ret창ngulo_48" data-name="Ret창ngulo 48" class="cls-6" width="37" height="12" transform="translate(1438 152)"/>
    <path id="Caminho_38" data-name="Caminho 38" class="cls-5" d="M-3.618-.558s15.18-6.507,16.43,10.3S5,67.1,5,67.1" transform="translate(1489.5 156.5)"/>
    <rect id="Ret창ngulo_49" data-name="Ret창ngulo 49" class="cls-6" width="8" height="22" transform="translate(1486 210)"/>
    <path id="Caminho_39" data-name="Caminho 39" class="cls-7" d="M.549,53.511c0-10.2,1.826-30.256,0-40.784S-7.3-.114-7.3-.114" transform="translate(1457.5 170.5)"/>
  </g>
</svg>
