<svg xmlns="http://www.w3.org/2000/svg" width="55.975" height="43.021" viewBox="0 0 55.975 43.021">
  <g id="Grupo_11" data-name="Grupo 11" transform="translate(-1805 -98)">
    <g id="Retângulo_55" data-name="Retângulo 55" transform="translate(1805 98)" fill="none" stroke="#fff" stroke-width="4">
      <rect width="55.975" height="43.021" rx="8" stroke="none"/>
      <rect x="2" y="2" width="51.975" height="39.021" rx="6" fill="none"/>
    </g>
    <path id="Caminho_41" data-name="Caminho 41" d="M16.709,0c3.637.015,16.709,26.595,16.709,26.595L.731,25.489a7.987,7.987,0,0,1,.954-4.8C5.207,13.76,13.992-.012,16.709,0Z" transform="translate(1806.671 112.08)" fill="#fff"/>
    <path id="Caminho_40" data-name="Caminho 40" d="M14.2,0c2.3.066,9.493,6.987,12.97,12.561,2.175,3.486,1.233,6.212,1.233,6.212H0S3.322,12.68,7.039,7.246C9.636,3.448,12.516-.049,14.2,0Z" transform="translate(1830.063 119.902)" fill="#fff"/>
    <path id="Caminho_42" data-name="Caminho 42" d="M3.174-6.23S6.351-.5,8.107-.475s4.391-3.8,4.391-3.8L15.873,9.594H0Z" transform="translate(1827.557 127.516)" fill="#fff"/>
    <path id="Subtração_3" data-name="Subtração 3" d="M4.872,11.373A6.415,6.415,0,0,1,0,9.2a7.307,7.307,0,0,0,3.106.683c3.549,0,6.436-2.473,6.436-5.513A5.248,5.248,0,0,0,7.037,0,6.218,6.218,0,0,1,9.985,2.115a5.576,5.576,0,0,1,1.152,3.391A6.083,6.083,0,0,1,4.872,11.373Z" transform="translate(1839.812 103.835)" fill="#fff"/>
  </g>
</svg>
