<svg xmlns="http://www.w3.org/2000/svg" width="37.015" height="49.351" viewBox="0 0 37.015 49.351">
  <path id="Subtração_11" data-name="Subtração 11" d="M-1988.154-2252.648h-24.676a6.176,6.176,0,0,1-6.17-6.168v-37.015a6.176,6.176,0,0,1,6.17-6.168h19.489a8.02,8.02,0,0,0-.211,1.831v3.279a8.65,8.65,0,0,0,2.466,6.087,7.706,7.706,0,0,0,5.534,1.914h3.567v30.074A6.175,6.175,0,0,1-1988.154-2252.648Zm-23.282-33.6a1,1,0,0,0-1,1v26a1,1,0,0,0,1,1h21a1,1,0,0,0,1-1v-26a1,1,0,0,0-1-1Zm20,26.879h-8a1,1,0,0,1-1-1v-1.877a1,1,0,0,1,1-1h8a1,1,0,0,1,1,1v1.877A1,1,0,0,1-1991.436-2259.37Zm-11,0h-8a1,1,0,0,1-1-1v-1.877a1,1,0,0,1,1-1h8a1,1,0,0,1,1,1v1.877A1,1,0,0,1-2002.436-2259.37Zm11-5h-8a1,1,0,0,1-1-1v-1.877a1,1,0,0,1,1-1h8a1,1,0,0,1,1,1v1.877A1,1,0,0,1-1991.436-2264.369Zm-11,0h-8a1,1,0,0,1-1-1v-1.877a1,1,0,0,1,1-1h8a1,1,0,0,1,1,1v1.877A1,1,0,0,1-2002.436-2264.369Zm11-5h-8a1,1,0,0,1-1-1v-1.876a1,1,0,0,1,1-1h8a1,1,0,0,1,1,1v1.876A1,1,0,0,1-1991.436-2269.371Zm-11,0h-8a1,1,0,0,1-1-1v-1.876a1,1,0,0,1,1-1h8a1,1,0,0,1,1,1v1.876A1,1,0,0,1-2002.436-2269.371Zm11-5h-8a1,1,0,0,1-1-1v-1.878a1,1,0,0,1,1-1h8a1,1,0,0,1,1,1v1.878A1,1,0,0,1-1991.436-2274.37Zm-11,0h-8a1,1,0,0,1-1-1v-1.878a1,1,0,0,1,1-1h8a1,1,0,0,1,1,1v1.878A1,1,0,0,1-2002.436-2274.37Zm11-5h-8a1,1,0,0,1-1-1v-1.877a1,1,0,0,1,1-1h8a1,1,0,0,1,1,1v1.877A1,1,0,0,1-1991.436-2279.371Zm-11,0h-8a1,1,0,0,1-1-1v-1.877a1,1,0,0,1,1-1h8a1,1,0,0,1,1,1v1.877A1,1,0,0,1-2002.436-2279.371Zm20.452-11.066h-4.937c-4-.134-5.055-4.365-5.055-6.583V-2302l9.99,11.56Z" transform="translate(2019 2301.999)" fill="#fff"/>
</svg>
