<svg xmlns="http://www.w3.org/2000/svg" width="37.015" height="49.352" viewBox="0 0 37.015 49.352">
  <path id="Subtração_7" data-name="Subtração 7" d="M30.846,49.352H6.17A6.176,6.176,0,0,1,0,43.184V6.169A6.176,6.176,0,0,1,6.17,0H25.658a8.026,8.026,0,0,0-.211,1.831V5.109A8.653,8.653,0,0,0,27.913,11.2a7.706,7.706,0,0,0,5.534,1.913h3.567V43.184A6.176,6.176,0,0,1,30.846,49.352ZM6.555,36.243a1.928,1.928,0,1,0,1.928,1.928A1.93,1.93,0,0,0,6.555,36.243Zm5.783,1.543a.771.771,0,1,0,0,1.543H32.387a.771.771,0,0,0,0-1.543ZM6.555,30.074A1.928,1.928,0,1,0,8.483,32,1.93,1.93,0,0,0,6.555,30.074Zm5.783,1.542a.771.771,0,0,0,0,1.543H32.387a.771.771,0,0,0,0-1.543ZM6.555,23.9a1.928,1.928,0,1,0,1.928,1.928A1.93,1.93,0,0,0,6.555,23.9Zm5.783,1.543a.771.771,0,1,0,0,1.543H32.387a.771.771,0,0,0,0-1.543ZM6.555,17.736a1.928,1.928,0,1,0,1.928,1.928A1.93,1.93,0,0,0,6.555,17.736Zm5.783,1.542a.771.771,0,1,0,0,1.543H32.387a.771.771,0,0,0,0-1.543Zm24.677-7.716H32.079c-4-.134-5.055-4.364-5.055-6.582V0l9.99,11.561Z" fill="#fff"/>
</svg>
