<svg xmlns="http://www.w3.org/2000/svg" width="32.526" height="30" viewBox="0 0 32.526 30">
  <path id="iconfinder_book_1608583" d="M95.5,134.836a2.764,2.764,0,0,1,.352,2.52l-5.371,17.7a4.034,4.034,0,0,1-1.494,2.1,3.9,3.9,0,0,1-2.393.85H68.567a4.781,4.781,0,0,1-2.9-1.045,5.486,5.486,0,0,1-1.943-2.568,3.543,3.543,0,0,1-.039-2.48q0-.078.059-.527t.078-.723a1.086,1.086,0,0,0-.059-.42.967.967,0,0,1-.059-.381,1.215,1.215,0,0,1,.156-.41,4.776,4.776,0,0,1,.322-.459,4.776,4.776,0,0,0,.322-.459,13.084,13.084,0,0,0,.879-1.787,10.6,10.6,0,0,0,.586-1.787,1.524,1.524,0,0,0,.01-.586,1.716,1.716,0,0,1-.01-.547,1.637,1.637,0,0,1,.332-.547,3.218,3.218,0,0,0,.332-.449,11.949,11.949,0,0,0,.82-1.8,7.993,7.993,0,0,0,.488-1.758,2.825,2.825,0,0,0-.049-.625q-.068-.449.01-.547a1.567,1.567,0,0,1,.43-.6q.352-.342.43-.439a8.06,8.06,0,0,0,.83-1.65,7.4,7.4,0,0,0,.537-1.885,1.616,1.616,0,0,0-.059-.5,1.268,1.268,0,0,1-.039-.518,1.1,1.1,0,0,1,.176-.352q.137-.2.352-.449t.332-.41a4.4,4.4,0,0,0,.322-.6q.166-.361.293-.684t.313-.7a3.36,3.36,0,0,1,.381-.625,2.26,2.26,0,0,1,.518-.459,1.3,1.3,0,0,1,.7-.225,4.052,4.052,0,0,1,.928.107l-.02.059a5.439,5.439,0,0,1,1-.176H90.188a2.572,2.572,0,0,1,2.227,1.094,2.786,2.786,0,0,1,.352,2.539l-5.352,17.7a7.636,7.636,0,0,1-1.4,3,3.6,3.6,0,0,1-2.51.674H66.535a.861.861,0,0,0-.742.293.891.891,0,0,0-.02.84q.469,1.367,2.813,1.367H86.613a2.168,2.168,0,0,0,1.094-.3,1.4,1.4,0,0,0,.684-.811l5.859-19.277a3.155,3.155,0,0,0,.1-1.113A2.583,2.583,0,0,1,95.5,134.836Zm-20.781.039a.509.509,0,0,0,.039.439.426.426,0,0,0,.391.186H87.024a.817.817,0,0,0,.5-.186.872.872,0,0,0,.322-.439l.41-1.25a.509.509,0,0,0-.039-.439.426.426,0,0,0-.391-.186H75.949a.817.817,0,0,0-.5.186.872.872,0,0,0-.322.439Zm-1.621,5a.509.509,0,0,0,.039.439.426.426,0,0,0,.391.186H85.4a.817.817,0,0,0,.5-.186.872.872,0,0,0,.322-.439l.41-1.25a.509.509,0,0,0-.039-.439A.426.426,0,0,0,86.2,138H74.328a.817.817,0,0,0-.5.186.872.872,0,0,0-.322.439Z" transform="translate(-63.478 -128)" fill="#fff"/>
</svg>
