<svg xmlns="http://www.w3.org/2000/svg" width="14.094" height="14.094" viewBox="0 0 14.094 14.094">
  <g id="gear" transform="translate(-66.566 -77.567)">
    <path id="Caminho_57" data-name="Caminho 57" d="M76.739,71.047A2.406,2.406,0,0,1,78.094,69a7.467,7.467,0,0,0-.58-1.4,2.269,2.269,0,0,1-2.276-.741,2.2,2.2,0,0,1-.573-2.276,7.367,7.367,0,0,0-1.4-.58,2.491,2.491,0,0,1-4.434,0,7.367,7.367,0,0,0-1.4.58,2.2,2.2,0,0,1-.573,2.276,2.27,2.27,0,0,1-2.272.741A7.148,7.148,0,0,0,64,69a2.4,2.4,0,0,1,1.358,2.048A2.661,2.661,0,0,1,64,73.264a7.367,7.367,0,0,0,.58,1.4,2.285,2.285,0,0,1,2.844,2.848,7.467,7.467,0,0,0,1.4.58,2.491,2.491,0,0,1,4.434,0,7.367,7.367,0,0,0,1.4-.58,2.2,2.2,0,0,1,.573-2.276A2.274,2.274,0,0,1,77.51,74.5a7.569,7.569,0,0,0,.58-1.4A2.4,2.4,0,0,1,76.739,71.047Zm-5.693,3.608a3.608,3.608,0,1,1,3.608-3.608A3.61,3.61,0,0,1,71.047,74.655Z" transform="translate(2.567 13.567)" fill="#fff"/>
  </g>
</svg>
