<?xml version="1.0" ?><svg version="1.1" viewBox="0 0 128 96" xmlns="http://www.w3.org/2000/svg" xmlns:xlink="http://www.w3.org/1999/xlink"><defs><linearGradient id="def0" x1="0.499995" x2="0.499995" y1="1.63487E-07" y2="1.00001"><stop offset="0" stop-color="#B3E2FF"/><stop offset="1" stop-color="#99CCFF"/></linearGradient></defs><g><path d="M128,96L0,96 0,0 128,0 128,96z" fill="#0099FF"/><path d="M1.33333,1.33334L126.667,1.33334 126.667,94.6667 1.33333,94.6667 1.33333,1.33334z" fill="url(#def0)"/><path d="M2.66667,2.66666L125.333,2.66666 125.333,93.3333 2.66667,93.3333 2.66667,2.66666z" fill="#FFFFFF"/><path d="M125.333,14.6667L2.66667,14.6667 2.66667,2.66666 125.333,2.66666 125.333,14.6667z" fill="#DEFFFF"/><path d="M2.66667,14.6667L125.333,14.6667 125.333,13.3333 2.66667,13.3333 2.66667,14.6667z" fill="#B4E2FF"/><path d="M40,93.3333L41.3333,93.3333 41.3333,2.66666 40,2.66666 40,93.3333z" fill="#B4E2FF"/><path d="M86.6667,93.3333L88,93.3333 88,2.66666 86.6667,2.66666 86.6667,93.3333z" fill="#B4E2FF"/><path d="M2.66667,28L125.333,28 125.333,26.6667 2.66667,26.6667 2.66667,28z" fill="#B4E2FF"/><path d="M2.66667,41.3333L125.333,41.3333 125.333,40 2.66667,40 2.66667,41.3333z" fill="#B4E2FF"/><path d="M2.66667,54.6667L125.333,54.6667 125.333,53.3333 2.66667,53.3333 2.66667,54.6667z" fill="#B4E2FF"/><path d="M2.66667,68L125.333,68 125.333,66.6653 2.66667,66.6653 2.66667,68z" fill="#B4E2FF"/><path d="M2.66667,81.3333L125.333,81.3333 125.333,80 2.66667,80 2.66667,81.3333z" fill="#B4E2FF"/><path d="M128,40L0,40 0,56 128,56 M124,52L4,52 4,44 124,44 124,52z" fill="#FFCC00"/></g></svg>