<svg width="55.975" height="43.021" xmlns="http://www.w3.org/2000/svg">

 <g>
  <title>background</title>
  <rect fill="none" id="canvas_background" height="402" width="582" y="-1" x="-1"/>
 </g>
 <g>
  <title>Layer 1</title>
  <g transform="rotate(0.0819319486618042 27.987497329712976,21.510501861573427) " stroke="null" id="svg_30">
   <g stroke="null" transform="matrix(0.6233205007592901,0,0,0.6994866719099088,-161.5734160942987,-108.70533025490901) " id="svg_21">
    <g stroke="#fff" stroke-width="4" fill="none" id="svg_26">
     <rect id="svg_28" x="276.127165" y="164.648612" rx="8" height="43.021" width="55.975"/>
     <rect stroke="null" id="svg_29" fill="none" rx="6" height="39.021" width="51.975" y="166.648612" x="278.127165"/>
    </g>
    <path stroke="null" fill="#b3b3b3" d="m294.507185,178.728614c3.637,0.015 16.709,26.595 16.709,26.595l-32.687,-1.106a7.987,7.987 0 0 1 0.954,-4.8c3.522,-6.929 12.307,-20.701 15.024,-20.689z" id="svg_25"/>
    <path stroke="null" fill="#b3b3b3" d="m315.390153,186.550613c2.3,0.066 9.493,6.987 12.97,12.561c2.175,3.486 1.233,6.212 1.233,6.212l-28.403,0s3.322,-6.093 7.039,-11.527c2.597,-3.798 5.477,-7.295 7.161,-7.246z" id="svg_24"/>
    <path stroke="null" fill="#b3b3b3" d="m301.858171,187.934611s3.177,5.73 4.933,5.755s4.391,-3.8 4.391,-3.8l3.375,13.869l-15.873,0l3.174,-15.824z" id="svg_23"/>
    <path stroke="null" fill="#b3b3b3" d="m315.811176,181.856611a6.415,6.415 0 0 1 -4.872,-2.173a7.307,7.307 0 0 0 3.106,0.683c3.549,0 6.436,-2.473 6.436,-5.513a5.248,5.248 0 0 0 -2.505,-4.37a6.218,6.218 0 0 1 2.948,2.115a5.576,5.576 0 0 1 1.152,3.391a6.083,6.083 0 0 1 -6.265,5.867z" id="svg_22"/>
   </g>
  </g>
  <desc transform="matrix(51.41168413460241,0,0,51.41168413460241,0,0) "/>

  <g transform="rotate(50 11.80047035217285,15.948131561279297) " stroke="null" id="svg_12">
   <g transform="matrix(0.5832973576237884,0,0,0.5376806030796899,-73.50807574370035,-144.69234163193843) " id="svg_8" fill-rule="evenodd" fill="none">
    <g stroke="null" id="svg_9" fill="#929292">
     <path fill="#b3b3b3" stroke="null" id="svg_10" d="m142.955979,283.765624l0,4l1,0l0,-4l-1,0l0,0zm6.402507,2.576864l-3.108583,2.517281l0.62932,0.777146l3.108584,-2.517281l-0.629321,-0.777146l0,0zm2.004929,6.735559l-3.89748,-0.899804l-0.224951,0.97437l3.89748,0.899804l0.224951,-0.97437l0,0zm-15.589921,0.97437l3.89748,-0.899804l-0.224951,-0.97437l-3.89748,0.899804l0.224951,0.97437l0,0zm1.150657,-6.932783l3.108584,2.517281l0.62932,-0.777146l-3.108583,-2.517281l-0.629321,0.777146l0,0zm12.031828,9.136888c0,-0.8234 -0.665797,-1.490898 -1.5,-1.490898c-0.828427,0 -1.5,0.67622 -1.5,1.490898l0,1.941625l0,2.567477l-1,0l0,-2.5l0,-6.991363c0,-0.833197 -0.665797,-1.508637 -1.5,-1.508637c-0.828427,0 -1.5,0.66642 -1.5,1.508637l0,10.289708c-2.0584,-2.200421 -4.76837,-4.619224 -5.878967,-3.50263c-1.08717,1.093041 1.714329,4.105007 5.626342,10.687379c1.762621,2.965794 3.99291,5.016448 7.752625,5.016906c4.142136,0 7.5,-3.357864 7.5,-7.5l0,-3.253199l0,-4.740403c0,-0.831961 -0.665797,-1.506398 -1.5,-1.506398c-0.828427,0 -1.5,0.676463 -1.5,1.506398l0,2.243327l0,0.250275l-1,0l0,-2.321844l0,-1.186891c0,-0.823603 -0.665797,-1.491265 -1.5,-1.491265c-0.828427,0 -1.5,0.662544 -1.5,1.491265l0,1.016936l0,1.491799l-1,0l0,-1.491799l0,-2.017303l0,0z"/>
    </g>
   </g>
  </g>
  <text xml:space="preserve" text-anchor="start" font-family="'Courier New', Courier, monospace" font-size="6" id="svg_31" y="41.226812" x="6.389268" stroke-opacity="null" stroke-width="0" stroke="null" fill="#b3b3b3">Dois Cliques</text>
  <rect stroke="null" id="svg_32" height="1.562478" width="15.50932" y="33.379825" x="12.007945" stroke-opacity="null" stroke-width="null" fill="#b3b3b3"/>
 </g>
</svg>