<svg xmlns="http://www.w3.org/2000/svg" width="41.498" height="32.751" viewBox="0 0 41.498 32.751">
  <path id="iconfinder_pencil-square-o_1608438" d="M20.656,152.564l2.7-2.7-3.536-3.536-2.7,2.7v1.3h2.233v2.233Zm10.235-16.748a.48.48,0,0,0-.768.023l-8.141,8.141a.527.527,0,1,0,.744.744l8.141-8.141A.48.48,0,0,0,30.891,135.816Zm1.861,13.817v4.42a6.711,6.711,0,0,1-6.7,6.7H6.7a6.452,6.452,0,0,1-4.734-1.966A6.452,6.452,0,0,1,0,154.052V134.7a6.452,6.452,0,0,1,1.966-4.734A6.452,6.452,0,0,1,6.7,128H26.052a6.4,6.4,0,0,1,2.722.582.705.705,0,0,1,.419.535.724.724,0,0,1-.209.675l-1.14,1.14a.68.68,0,0,1-.744.186,4.137,4.137,0,0,0-1.047-.14H6.7a3.584,3.584,0,0,0-2.628,1.093A3.584,3.584,0,0,0,2.977,134.7v19.353a3.584,3.584,0,0,0,1.093,2.628A3.584,3.584,0,0,0,6.7,157.774H26.052a3.733,3.733,0,0,0,3.722-3.722v-2.931a.7.7,0,0,1,.209-.512l1.489-1.489a.7.7,0,0,1,.814-.163A.675.675,0,0,1,32.751,149.633Zm-2.233-17.167,6.7,6.7L21.586,154.8h-6.7v-6.7Zm10.328,3.07-2.14,2.14-6.7-6.7,2.14-2.14a2.246,2.246,0,0,1,3.163,0l3.536,3.536a2.246,2.246,0,0,1,0,3.163Z" transform="translate(0 -128)" fill="#fff"/>
</svg>
