<svg xmlns="http://www.w3.org/2000/svg" width="48" height="50.575" viewBox="0 0 48 50.575">
  <g id="iconfinder_Contat_Us_31-Write_4211859" transform="translate(-8 -6.712)">
    <g id="Grupo_37" data-name="Grupo 37">
      <path id="Caminho_61" data-name="Caminho 61" d="M37.73,37.222l.64,3.8a1.012,1.012,0,0,0,.7.79.93.93,0,0,0,.29.05.964.964,0,0,0,.72-.32l2.66-2.79-1.55-.47Z" fill="#fff"/>
      <path id="Caminho_62" data-name="Caminho 62" d="M48.01,8.992l3.82,1.17a2.7,2.7,0,0,1,.69.31,3.975,3.975,0,0,0-2.83-3.58,3.845,3.845,0,0,0-1.16-.18,3.941,3.941,0,0,0-3.18,1.58,2.279,2.279,0,0,1,.73.12Z" fill="#fff"/>
      <path id="Caminho_63" data-name="Caminho 63" d="M37.352,34.715a1,1,0,0,0,.591.486l1.917.583,7.564-24.876-1.917-.583a1,1,0,0,0-1.248.666L37.278,33.954A1,1,0,0,0,37.352,34.715Z" fill="#fff"/>
      <path id="Caminho_64" data-name="Caminho 64" d="M43.975,36.99a1,1,0,0,0,.956-.709l6.982-22.962a1,1,0,0,0-.666-1.248l-1.911-.581L41.773,36.366l1.911.581A1,1,0,0,0,43.975,36.99Z" fill="#fff"/>
      <path id="Caminho_65" data-name="Caminho 65" d="M55.952,55.983,48.3,32.072l-1.526,5.018-.067.116a2.944,2.944,0,0,1-.221.41c-.035.054-.191.28-.191.28l-.164.178-4.6,4.849A3,3,0,0,1,36.4,41.362l-1.155-6.789,0-.224a2.794,2.794,0,0,1,.033-.566v-.118l3.154-10.377H19.075a1,1,0,0,0-.954.7l-10.075,32A1,1,0,0,0,9,57.288H55a1,1,0,0,0,.953-1.3Zm-36.7-15.7H32a1,1,0,0,1,0,2H19.254a1,1,0,1,1,0-2Zm-1.418,5H46.164a1,1,0,0,1,0,2H17.836a1,1,0,0,1,0-2Zm29.746,7H16.418a1,1,0,1,1,0-2H47.582a1,1,0,0,1,0,2Z" fill="#fff"/>
    </g>
  </g>
</svg>
