<svg width="24" height="24" xmlns="http://www.w3.org/2000/svg">

 <g>
  <title>background</title>
  <rect fill="none" id="canvas_background" height="402" width="582" y="-1" x="-1"/>
 </g>
 <g>
  <title>Layer 1</title>
  <path id="svg_1" fill="#ffffff" d="m22.5,1l-21,0c-0.27637,0 -0.5,0.22363 -0.5,0.5l0,3c0,0.27637 0.22363,0.5 0.5,0.5l3.49854,0c-0.0254,4.59668 -0.39551,15.3208 -1.88916,17.1875c-0.12012,0.15039 -0.14307,0.35596 -0.06006,0.5293c0.08349,0.17285 0.2583,0.2832 0.45068,0.2832l3,0c0.15186,0 0.29541,-0.06885 0.39063,-0.1875c1.90917,-2.38721 2.09179,-14.82031 2.10791,-17.8125l6.00146,0l0,14.5c0,1.92969 1.57031,3.5 3.5,3.5l3,0c0.16064,0 0.31152,-0.07715 0.40576,-0.20752c0.09375,-0.13037 0.11963,-0.29834 0.06836,-0.45068l-1,-3c-0.06787,-0.2041 -0.25879,-0.3418 -0.47412,-0.3418l-0.99854,0.00049l-0.00048,0c-0.27539,0 -0.5,-0.22412 -0.5,-0.49951l-0.00098,-13.50098l3.5,0c0.27637,0 0.5,-0.22363 0.5,-0.5l0,-3c0,-0.27637 -0.22363,-0.5 -0.5,-0.5z"/>
  <g id="svg_2"/>
  <g id="svg_3"/>
  <g id="svg_4"/>
  <g id="svg_5"/>
  <g id="svg_6"/>
  <g id="svg_7"/>
  <g id="svg_8"/>
  <g id="svg_9"/>
  <g id="svg_10"/>
  <g id="svg_11"/>
  <g id="svg_12"/>
  <g id="svg_13"/>
  <g id="svg_14"/>
  <g id="svg_15"/>
  <g id="svg_16"/>
 </g>
</svg>