<svg width="20" height="29" xmlns="http://www.w3.org/2000/svg">

 <g>
  <title>background</title>
  <rect fill="none" id="canvas_background" height="402" width="582" y="-1" x="-1"/>
 </g>
 <g>
  <title>Layer 1</title>
  <path id="svg_1" fill-rule="evenodd" fill="#cccccc" d="m11.595805,23.3l0,3.2l5,0l0,2l-5,0l-3,0l-5,0l0,-2l5,0l0,-3.2c-4.4,-0.6 -7.8,-4.1 -7.8,-8.4l0,-3c0,-0.1 0,-0.3 0,-0.4l2.8,0c0,0.3 -0.1,0.6 -0.1,0.9l0,2.1c0,3.3 2.9,6 6.5,6c3.6,0 6.5,-2.7 6.5,-6l0,-2.1c0,-0.3 0,-0.6 -0.1,-0.9l2.8,0c0,0.1 0,0.3 0,0.4l0,3c0.2,4.3 -3.2,7.8 -7.6,8.4zm-1.5,-4.8c-2.5,0 -4.5,-2 -4.5,-4.5l0,-9c0,-2.5 2,-4.5 4.5,-4.5s4.5,2 4.5,4.5l0,9c0,2.5 -2,4.5 -4.5,4.5z" clip-rule="evenodd"/>
 </g>
</svg>