<svg width="20" height="29" xmlns="http://www.w3.org/2000/svg">
 <g>
  <title>background</title>
  <rect x="-1" y="-1" width="22" height="31" id="canvas_background" fill="none"/>
 </g>

 <g>
  <title>Layer 1</title>
  <path clip-rule="evenodd" d="m11.72081,23.425l0,3.2l4.99999,0l0,2l-5,0l-3,0l-5,0l0,-2l5,0l0,-3.2c-4.4,-0.6 -7.8,-4.1 -7.8,-8.4l0,-3c0,-0.1 0,-0.3 0,-0.4l2.8,0c0,0.3 -0.1,0.6 -0.1,0.9l0,2.1c0,3.3 2.9,6 6.5,6c3.6,0 6.5,-2.7 6.5,-6l0,-2.1c0,-0.3 0,-0.6 -0.1,-0.9l2.8,0c0,0.1 0,0.3 0,0.4l0,3c0.2,4.3 -3.2,7.8 -7.6,8.4l0.00001,0zm-1.5,-4.8c-2.5,0 -4.5,-2 -4.5,-4.5l0,-9c0,-2.5 2,-4.5 4.5,-4.5s4.5,2 4.5,4.5l0,9c0,2.5 -2,4.5 -4.5,4.5z" fill="#ffffff" fill-rule="evenodd" id="svg_1"/>
 </g>
</svg>