<?xml version="1.0" ?><svg height="512" id="svg2" version="1.1" width="512" xmlns="http://www.w3.org/2000/svg" xmlns:cc="http://creativecommons.org/ns#" xmlns:dc="http://purl.org/dc/elements/1.1/" xmlns:inkscape="http://www.inkscape.org/namespaces/inkscape" xmlns:rdf="http://www.w3.org/1999/02/22-rdf-syntax-ns#" xmlns:sodipodi="http://sodipodi.sourceforge.net/DTD/sodipodi-0.dtd" xmlns:svg="http://www.w3.org/2000/svg"><defs id="defs4"/><g id="layer1" transform="translate(0,-540.36218)"><g id="g4305"><g id="g4345" transform="translate(28,-40.00001)"><path d="m 199.28372,903.66364 c -3.96645,-10.50313 -7.69951,-20.82823 -11.19919,-30.97535 -3.50003,-10.14705 -7.11916,-20.47215 -10.85739,-30.97534 l -109.898374,0 -22.045899,61.95069 -35.3546138,0 C 19.263568,878.00041 28.014984,854.25979 36.182526,832.44171 44.35001,810.62377 52.341284,789.91482 60.156372,770.31479 67.971354,750.71503 75.729424,731.98921 83.430603,714.13727 91.13163,696.28571 99.17987,678.61198 107.57535,661.11603 l 31.15692,0 c 8.39525,17.49595 16.44349,35.16968 24.14474,53.02124 7.70095,17.85194 15.4608,36.57776 23.27958,56.17752 7.81841,19.60003 15.80969,40.30898 23.97384,62.12692 8.16375,21.81808 16.91339,45.5587 26.24893,71.22193 z m -31.85119,-89.94599 c -7.46984,-20.3012 -14.879,-39.95984 -22.22748,-58.97598 -7.34877,-19.01584 -14.98934,-37.27526 -22.92176,-54.77829 -8.16762,17.50303 -15.92747,35.76245 -23.279567,54.77829 -7.352278,19.01614 -14.642157,38.67478 -21.869659,58.97598 z" id="path3881" style="font-size:350px;font-style:normal;font-variant:normal;font-weight:normal;font-stretch:normal;text-align:start;line-height:125%;letter-spacing:0px;word-spacing:0px;writing-mode:lr-tb;text-anchor:start;fill:#FFF;fill-opacity:1;stroke:none;font-family:Ubuntu;-inkscape-font-specification:Ubuntu"/><path d="m 334.42166,905.76782 c -4.89918,0 -10.20771,-0.11749 -15.9256,-0.35248 -5.71805,-0.23498 -11.43602,-0.58568 -17.15393,-1.05209 -5.71803,-0.46641 -11.37726,-1.05031 -16.97769,-1.75171 -5.60052,-0.70139 -10.73281,-1.63243 -15.39688,-2.79312 l 0,-235.20966 c 4.66407,-1.16044 9.79636,-2.09148 15.39688,-2.79312 5.60043,-0.70115 11.25966,-1.28505 16.97769,-1.75171 5.71791,-0.46616 11.37714,-0.81686 16.97769,-1.05209 5.6004,-0.23474 10.85018,-0.35223 15.74936,-0.35248 13.99932,2.5e-4 27.12467,1.05056 39.37607,3.15094 12.25114,2.10087 22.86819,5.65947 31.8512,10.67581 8.98267,5.01681 16.04113,11.60886 21.17538,19.77616 5.13388,8.16772 7.70092,18.20087 7.70111,30.09949 -1.9e-4,13.30176 -3.15113,24.21076 -9.45282,32.72705 -6.30206,8.51658 -14.70099,14.87541 -25.19684,19.07653 14.22712,4.20138 25.54201,10.85217 33.94471,19.9524 8.4023,9.10044 12.60355,21.93205 12.60376,38.49487 -2.1e-4,24.26762 -8.92608,42.52704 -26.77765,54.77829 -17.85193,12.25129 -46.14271,18.37692 -84.87244,18.37692 z m -31.85119,-115.1535 0,85.39581 c 2.56341,0.23501 5.59685,0.47 9.10034,0.70496 3.03337,0.23501 6.59197,0.40947 10.67581,0.52337 4.08367,0.11396 8.80652,0.17093 14.16855,0.1709 10.03305,3e-5 19.54105,-0.64084 28.52401,-1.9226 8.98272,-1.28171 16.85828,-3.5568 23.62671,-6.82526 6.76814,-3.2684 12.19416,-7.81856 16.27808,-13.65051 4.08359,-5.83186 6.12547,-13.18048 6.12564,-22.0459 -1.7e-4,-7.93246 -1.51689,-14.64022 -4.55017,-20.12329 -3.03361,-5.4829 -7.40932,-9.85861 -13.12714,-13.12714 -5.71812,-3.26832 -12.54337,-5.60215 -20.47577,-7.00149 -7.93266,-1.39912 -16.79801,-2.09874 -26.59606,-2.09885 z m 0,-27.30103 35.69641,0 c 8.40239,1.4e-4 16.3367,-0.58376 23.80294,-1.75171 7.466,-1.16766 13.94055,-3.26828 19.42368,-6.30188 5.48284,-3.03329 9.7998,-6.99956 12.9509,-11.8988 3.15078,-4.89892 4.72625,-11.07974 4.72641,-18.54248 -1.6e-4,-6.99953 -1.63438,-12.89196 -4.90265,-17.67731 -3.26859,-4.78495 -7.76001,-8.6355 -13.47428,-11.55166 -5.71455,-2.91575 -12.42231,-5.07334 -20.12329,-6.47278 -7.70122,-1.39902 -15.86695,-2.09863 -24.49722,-2.09885 -8.63758,2.2e-4 -15.40586,0.11593 -20.30487,0.34714 -4.89916,0.23164 -9.33183,0.58234 -13.29803,1.05209 z" id="path3883" style="font-size:350px;font-style:normal;font-variant:normal;font-weight:normal;font-stretch:normal;text-align:start;line-height:125%;letter-spacing:0px;word-spacing:0px;writing-mode:lr-tb;text-anchor:start;fill:#FFF;fill-opacity:1;stroke:none;font-family:Ubuntu;-inkscape-font-specification:Ubuntu"/><rect height="30" id="rect3781" style="color:#000000;fill:#FFF;fill-opacity:1;fill-rule:nonzero;stroke:none;stroke-width:20;marker:none;visibility:visible;display:inline;overflow:visible;enable-background:accumulate" width="436.14301" x="9.9284973" y="984.065"/></g></g></g></svg>