<svg width="215" height="32" xmlns="http://www.w3.org/2000/svg">
 <title/>
 <desc/>

 <g>
  <title>background</title>
  <rect fill="none" id="canvas_background" height="34" width="217" y="-1" x="-1"/>
 </g>
 <g>
  <title>Layer 1</title>
  <text xml:space="preserve" text-anchor="start" font-family="Helvetica, Arial, sans-serif" font-size="24" id="svg_1" y="24.26112" x="37.133364" stroke-width="0" stroke="#000" fill="#cccccc">Dois Cliques</text>
  <g transform="rotate(45 18.03704452514648,16.499998092651367) " id="Page-1" fill-rule="evenodd" fill="none">
   <g id="icon-27-one-finger-click" fill="#929292">
    <path id="one-finger-click" d="m14.740765,1.499997l0,4l1,0l0,-4l-1,0l0,0zm6.4025,2.57686l-3.10858,2.51729l0.62932,0.77714l3.10858,-2.51728l-0.62932,-0.77715l0,0zm2.00493,6.73556l-3.89748,-0.8998l-0.22495,0.97437l3.89748,0.8998l0.22495,-0.97437l0,0zm-15.58992,0.97437l3.89748,-0.8998l-0.22495,-0.97437l-3.89748,0.8998l0.22495,0.97437l0,0zm1.15066,-6.93278l3.10858,2.51728l0.62932,-0.77714l-3.10858,-2.51729l-0.62932,0.77715l0,0zm12.03183,9.13689c0,-0.8234 -0.6658,-1.4909 -1.5,-1.4909c-0.82843,0 -1.5,0.67622 -1.5,1.4909l0,1.94162l0,2.56748l-1,0l0,-2.5l0,-6.99136c0,-0.8332 -0.6658,-1.50864 -1.5,-1.50864c-0.82843,0 -1.5,0.66642 -1.5,1.50864l0,10.28971c-2.0584,-2.20043 -4.76837,-4.61923 -5.87897,-3.50263c-1.08717,1.09304 1.71433,4.105 5.62634,10.68737c1.76262,2.9658 3.99291,5.01645 7.75263,5.01691c4.14213,0 7.5,-3.35786 7.5,-7.5l0,-3.2532l0,-4.7404c0,-0.83196 -0.6658,-1.5064 -1.5,-1.5064c-0.82843,0 -1.5,0.67646 -1.5,1.5064l0,2.24333l0,0.25027l-1,0l0,-2.32184l0,-1.18689c0,-0.82361 -0.6658,-1.49127 -1.5,-1.49127c-0.82843,0 -1.5,0.66254 -1.5,1.49127l0,1.01693l0,1.4918l-1,0l0,-1.4918l0,-2.0173l0,0z"/>
   </g>
  </g>
  <path stroke="#000" transform="rotate(90 193.08326721191406,16.000005722045916) " id="svg_7" d="m181.000005,25.999941l12.08326,-19.99988l12.08326,19.99988l-24.16652,0z" fill-opacity="null" stroke-opacity="null" stroke-width="0" fill="#cccccc"/>
 </g>
</svg>